<svg xmlns="http://www.w3.org/2000/svg" viewBox="0 0 488.88 296.69"><title>bevegelseAsset 16</title><g id="Layer_2" data-name="Layer 2"><g id="Layer_2_copy" data-name="Layer 2 copy"><path d="M35.43,226.57c5.82,0,11.15-.15,16.47,0,10.32.35,18.05,8,18.06,17.59s-7.06,16.66-17.82,16.92q-17.25.42-34.5,0C6,260.81-.17,254.25,0,242.66Q1.62,133.43,83.07,60.6C119.25,28.28,161.72,8.46,209.64,2.39c87.07-11,160.7,16.09,219.15,82,31.5,35.54,50.59,77.25,57.49,124.29,1.69,11.49,2.15,23.2,2.58,34.84.38,9.87-6.21,17.07-16.06,17.4-12.65.44-25.34.42-38,0-9.57-.34-15.79-7.35-15.84-16.57s6.57-16.82,15.79-17.52c5.92-.45,11.9-.09,18.1-.09C449,182,433.05,143.08,404.35,108.49c-3.81,3.92-7.38,7.74-11.1,11.4-7.89,7.77-18.63,8-25.78.73-6.73-6.87-6.08-18.64,1.4-26.05,3.42-3.39,6.8-6.83,10.35-10.4-34-28.5-72.93-44.52-118-48.95,0,6.91.49,13.22-.1,19.42a16.66,16.66,0,0,1-26.69,11.74,17.76,17.76,0,0,1-7.6-15c0-5.13,0-10.27,0-16.11-44.64,4.28-83.54,20.53-117.73,48.89,3.73,3.53,7.41,6.87,10.93,10.38,7.82,7.8,8.26,19.06,1.13,26.37-6.85,7-18.67,6.52-26.37-1.22-3.41-3.43-6.65-7-10-10.52C63.23,131.37,39.49,177.94,35.43,226.57Z"/><path d="M240.66,296.69c-18.06-1.32-34.92-10.73-43.9-30.9-9.18-20.6-6.38-40.81,8.94-57.19s35.24-20.72,56.87-13.44c3.69,1.25,5.58.53,8.08-2,13-13.2,25.94-26.38,39.29-39.18,3.32-3.18,7.78-6.05,12.17-7,7.83-1.74,14.73,2.42,18.19,9.25,3.57,7,2.4,14.39-3.74,20.57q-20.78,20.94-41.82,41.61c-2.27,2.23-3.09,3.94-1.74,7.25C306.65,259,280.67,296.8,240.66,296.69Zm20.74-52.55c0-9.77-7.75-17.67-17.15-17.54-9.17.12-17.45,8.55-17.4,17.7.05,9.43,8,16.93,17.81,16.84C254.76,261,261.44,254.26,261.4,244.14Z"/></g></g></svg>